<?xml version="1.0" standalone="no"?>
<!DOCTYPE svg PUBLIC "-//W3C//DTD SVG 20010904//EN"
 "http://www.w3.org/TR/2001/REC-SVG-20010904/DTD/svg10.dtd">
<svg version="1.0" xmlns="http://www.w3.org/2000/svg"
 width="411.553717pt" height="411.415045pt" viewBox="0 0 411.553717 411.415045"
 preserveAspectRatio="xMidYMid meet">
<metadata>
Created by potrace 1.12, written by Peter Selinger 2001-2015
</metadata>
<g transform="translate(-4.000000,415.845126) scale(0.100000,-0.100000)"
fill="#000000" stroke="none">
<path d="M1820 4144 c-250 -33 -512 -122 -747 -254 l-73 -41 0 -606 0 -607 28
26 c15 14 286 261 602 548 953 868 970 884 957 891 -22 12 -111 29 -230 44
-144 18 -395 18 -537 -1z"/>
<path d="M2257 3677 l-428 -392 972 -3 c535 -1 974 0 977 3 7 7 -95 138 -178
228 -140 151 -367 322 -558 420 -102 53 -313 137 -339 136 -10 0 -211 -177
-446 -392z"/>
<path d="M833 3728 c-283 -224 -507 -518 -639 -839 -38 -92 -119 -350 -111
-354 1 -1 186 -172 411 -381 224 -208 412 -380 417 -382 5 -2 9 422 9 1007 0
556 -2 1011 -4 1011 -3 0 -40 -28 -83 -62z"/>
<path d="M2832 2958 c150 -133 372 -330 493 -438 122 -107 350 -310 508 -450
158 -140 291 -256 296 -258 14 -5 23 77 26 248 3 191 -5 285 -39 450 -48 233
-144 480 -251 650 l-25 40 -641 0 -640 0 273 -242z"/>
<path d="M3280 1436 c0 -875 2 -1016 14 -1009 49 28 190 151 283 246 260 269
440 595 523 951 12 48 20 89 18 90 -3 2 -117 103 -533 471 -148 131 -278 245
-287 253 -17 14 -18 -34 -18 -1002z"/>
<path d="M51 2340 c-6 -55 -11 -163 -11 -239 0 -363 89 -701 268 -1018 l47
-83 628 0 c346 0 627 4 625 8 -4 10 -1526 1426 -1537 1430 -5 1 -13 -43 -20
-98z"/>
<path d="M2915 1328 c-538 -483 -831 -744 -1029 -922 -276 -246 -319 -286
-313 -292 7 -7 106 -30 217 -49 111 -20 396 -27 515 -14 194 22 426 82 603
158 89 38 238 116 275 143 16 12 17 50 15 620 l-3 607 -280 -251z"/>
<path d="M469 843 c142 -185 300 -330 496 -459 156 -102 413 -226 491 -236 15
-2 135 99 439 372 230 206 426 380 434 387 13 10 -189 12 -952 13 l-968 0 60
-77z"/>
</g>
</svg>
